<?xml version="1.0" encoding="UTF-8" standalone="no"?><!DOCTYPE svg PUBLIC "-//W3C//DTD SVG 1.1//EN" "http://www.w3.org/Graphics/SVG/1.1/DTD/svg11.dtd"><svg width="100%" height="100%" viewBox="0 0 157 157" version="1.1" xmlns="http://www.w3.org/2000/svg" xmlns:xlink="http://www.w3.org/1999/xlink" xmlspace="preserve" xmlnsserif="http://www.serif.com/" style="fill-rule:evenodd;clip-rule:evenodd;stroke-linejoin:round;stroke-miterlimit:2;"><path d="M78.125,0c-43.104,0 -78.125,35.021 -78.125,78.125c0,43.104 35.021,78.125 78.125,78.125c43.104,0 78.125,-35.021 78.125,-78.125c0,-2.313 -0.152,-4.535 -0.334,-6.685c-0.162,-1.916 -1.784,-3.407 -3.708,-3.407c-0.707,0 -1.399,0.201 -1.996,0.581c-2.049,1.307 -7.481,3.171 -10.048,3.171c-5.517,0 -6.836,-3.794 -9.011,-9.318c-0.557,-1.415 -1.936,-2.344 -3.456,-2.344c-0.618,0 -1.225,0.154 -1.768,0.447c-3.154,1.706 -4.836,2.654 -10.602,2.674c-14.152,0.05 -25.801,-7.455 -22.732,-22.542c0.894,-4.396 1.379,-7.227 3.085,-10.381c0.293,-0.543 0.447,-1.15 0.447,-1.768c0,-1.52 -0.934,-2.887 -2.344,-3.456c-5.778,-2.335 -9.919,-4.614 -9.919,-9.569c0,-4.955 2.465,-7.441 3.772,-9.49c0.38,-0.597 0.581,-1.289 0.581,-1.996c0,-1.924 -1.491,-3.546 -3.407,-3.708c-2.15,-0.182 -4.372,-0.334 -6.685,-0.334Zm0,7.44c0.531,0 1.085,0.063 1.62,0.08c-0.31,0.27 -2.501,2.137 -2.501,8.33c0,3.33 0.739,6.72 3.094,9.075c0.023,0.023 3.192,4.483 7.683,4.692c-1.459,3.515 -1.981,7.302 -2.456,11.306c-1.131,9.548 0.737,16.297 6.503,21.645c5.317,4.932 14.816,8.249 23.259,8.117c4.031,-0.064 7.791,-0.997 11.306,-2.456c2.126,6.034 5.532,10.09 13.531,9.896c2.031,-0.049 6.718,-1.06 8.566,-1.62c0.017,0.535 0.08,1.089 0.08,1.62c0,39.083 -31.602,70.685 -70.685,70.685c-39.083,0 -70.685,-31.602 -70.685,-70.685c0,-39.083 31.602,-70.685 70.685,-70.685Zm-50.736,71.484c3.897,0 7.06,3.163 7.06,7.06c0,3.897 -3.163,7.06 -7.06,7.06c-3.897,0 -7.06,-3.163 -7.06,-7.06c0,-3.897 3.163,-7.06 7.06,-7.06Zm20.619,33.154c3.009,0 5.452,2.443 5.452,5.452c0,3.009 -2.443,5.452 -5.452,5.452c-3.009,0 -5.452,-2.443 -5.452,-5.452c0,-3.009 2.443,-5.452 5.452,-5.452Zm96.254,-104.638c3.897,0 7.061,3.164 7.061,7.061c0,3.896 -3.164,7.06 -7.061,7.06c-3.896,0 -7.06,-3.164 -7.06,-7.06c0,-3.897 3.164,-7.061 7.06,-7.061Zm-25.776,12.86c2.958,0 5.359,2.402 5.359,5.359c0,2.958 -2.401,5.359 -5.359,5.359c-2.957,0 -5.359,-2.401 -5.359,-5.359c0,-2.957 2.402,-5.359 5.359,-5.359Zm21.678,21.327c2.262,0 4.098,1.836 4.098,4.098c0,2.262 -1.836,4.098 -4.098,4.098c-2.262,0 -4.098,-1.836 -4.098,-4.098c0,-2.262 1.836,-4.098 4.098,-4.098Zm-52.089,77.902c5.167,0 9.362,4.195 9.362,9.362c0,5.167 -4.195,9.362 -9.362,9.362c-5.167,0 -9.361,-4.195 -9.361,-9.362c0,-5.167 4.194,-9.362 9.361,-9.362Zm-36.865,-87.578c5.896,0 10.683,4.787 10.683,10.683c0,5.896 -4.787,10.683 -10.683,10.683c-5.896,0 -10.683,-4.787 -10.683,-10.683c0,-5.896 4.787,-10.683 10.683,-10.683Zm63.854,61.093c4.415,0 8,3.585 8,8.001c0,4.415 -3.585,8 -8,8c-4.416,0 -8,-3.585 -8,-8c0,-4.416 3.584,-8.001 8,-8.001Zm-39.08,-16.769c4.349,0 7.88,3.531 7.88,7.88c0,4.349 -3.531,7.88 -7.88,7.88c-4.349,0 -7.88,-3.531 -7.88,-7.88c0,-4.349 3.531,-7.88 7.88,-7.88Z" style="fill:#ee5168;fill-rule:nonzero;"/></svg>
